<svg xmlns="http://www.w3.org/2000/svg" width="1080" height="1920" viewBox="0 0 1080 1920">
  <g transform="translate(50 50)">
    <path fill="rgb(200,200,200)" fill-rule="evenodd" d="M8 0h150c4.4153202 0 8 3.5846798 8 8v64c0 4.4153202-3.5846798 8-8 8H8c-4.4153202 0-8-3.5846798-8-8V8c0-4.4153202 3.5846798-8 8-8z"/>
    <text font-size="0" style="white-space:pre">
      <tspan x="37" y="50" fill="rgb(0,0,0)" font-family="Segoe UI Black" font-size="24" font-weight="900" style="white-space:pre;text-transform:none" font-style="italic"><- Back</tspan>
    </text>
  </g>
  <g transform="translate(864 51)">
    <path fill="rgb(200,200,200)" fill-rule="evenodd" d="M8 0h150c4.4153202 0 8 3.5846798 8 8v64c0 4.4153202-3.5846798 8-8 8H8c-4.4153202 0-8-3.5846798-8-8V8c0-4.4153202 3.5846798-8 8-8z"/>
    <text font-size="0" style="white-space:pre">
      <tspan x="57.5" y="50" fill="rgb(0,0,0)" font-family="Segoe UI Black" font-size="24" font-weight="900" style="white-space:pre;text-transform:none" font-style="italic">Cart</tspan>
    </text>
  </g>
  <path fill="rgb(200,200,200)" fill-rule="evenodd" d="M77 168h964c4.4153202 0 8 3.5846798 8 8v584c0 4.4153202-3.5846798 8-8 8H77c-4.4153202 0-8-3.5846798-8-8V176c0-4.4153202 3.5846798-8 8-8z"/>
  <g transform="translate(109 364)">
    <text font-size="0" style="white-space:pre">
      <tspan x="518" y="120" fill="rgb(0,0,0)" font-family="Segoe UI Black" font-size="24" font-weight="900" style="white-space:pre;text-transform:none"> 9.99 $/kg</tspan>
    </text>
    <text font-size="0" style="white-space:pre">
      <tspan x="176" y="121" fill="rgb(0,0,0)" font-family="Segoe UI Black" font-size="32" font-weight="900" style="white-space:pre;text-transform:none">Short Description</tspan>
    </text>
    <text font-size="0" style="white-space:pre">
      <tspan x="507" y="78" fill="rgb(0,0,0)" font-family="Segoe UI Black" font-size="64" font-weight="900" style="white-space:pre;text-transform:none" font-style="italic">9.99$</tspan>
    </text>
    <text font-size="0" style="white-space:pre">
      <tspan x="319" y="64" fill="rgb(0,0,0)" font-family="Segoe UI Black" font-size="32" font-weight="900" style="white-space:pre;text-transform:none">Size</tspan>
    </text>
    <text font-size="0" style="white-space:pre">
      <tspan x="176" y="66" fill="rgb(0,0,0)" font-family="Segoe UI Black" font-size="48" font-weight="900" style="white-space:pre;text-transform:none">Item</tspan>
    </text>
    <ellipse cx="71.5" cy="71.5" fill="rgb(0,0,0)" rx="71.5" ry="71.5"/>
    <g transform="translate(767 45)">
      <path fill="rgb(255,255,255)" fill-rule="evenodd" d="M8 0h104c4.4153202 0 8 3.5846798 8 8v19c0 4.4153202-3.5846798 8-8 8H8c-4.4153202 0-8-3.5846798-8-8V8c0-4.4153202 3.5846798-8 8-8z"/>
      <text font-size="0" style="white-space:pre">
        <tspan x="20" y="28" fill="rgb(0,0,0)" font-family="Segoe UI Black" font-size="24" font-weight="900" style="white-space:pre;text-transform:none"> 0.00 $</tspan>
      </text>
    </g>
    <g transform="translate(824 89)">
      <path fill="rgb(255,255,255)" fill-rule="evenodd" d="M8 0h47c4.4153202 0 8 3.5846798 8 8v19c0 4.4153202-3.5846798 8-8 8H8c-4.4153202 0-8-3.5846798-8-8V8c0-4.4153202 3.5846798-8 8-8z"/>
      <text font-size="0" style="white-space:pre">
        <tspan x="7" y="27" fill="rgb(0,0,0)" font-family="Segoe UI Black" font-size="24" font-weight="900" style="white-space:pre;text-transform:none">0</tspan>
      </text>
      <g transform="translate(28)">
        <rect width="35" height="17" x="0" y="0" fill="rgb(130,130,130)"/>
        <path fill="none" stroke="rgb(255,255,255)" stroke-linecap="butt" stroke-linejoin="miter" stroke-width="1" d="M10 12l7.5-7"/>
        <path fill="none" stroke="rgb(255,255,255)" stroke-linecap="butt" stroke-linejoin="miter" stroke-width="1" d="M17.2500021 4.74999803l6.9999958 7.50000394"/>
      </g>
      <g transform="translate(28 18)">
        <rect width="35" height="17" x="0" y="0" fill="rgb(130,130,130)"/>
        <path fill="none" stroke="rgb(255,255,255)" stroke-linecap="butt" stroke-linejoin="miter" stroke-width="1" d="M17 12l7.5-7"/>
        <path fill="none" stroke="rgb(255,255,255)" stroke-linecap="butt" stroke-linejoin="miter" stroke-width="1" d="M16.99999368 12.5000059l-6.99998736-7.5000118"/>
      </g>
    </g>
  </g>
  <text font-size="0" style="white-space:pre">
    <tspan x="109" y="294" fill="rgb(0,0,0)" font-family="Segoe UI Black" font-size="64" font-weight="900" style="white-space:pre;text-transform:none">Category:</tspan>
  </text>
  <path fill="rgb(200,200,200)" fill-rule="evenodd" d="M8 1620h1064c4.4153202 0 8 3.5846798 8 8v284c0 4.4153202-3.5846798 8-8 8H8c-4.4153202 0-8-3.5846798-8-8v-284c0-4.4153202 3.5846798-8 8-8z"/>
  <g transform="translate(395 1791)">
    <path fill="rgb(42,201,64)" fill-rule="evenodd" d="M8 0h324c4.4153202 0 8 3.5846798 8 8v84c0 4.4153202-3.5846798 8-8 8H8c-4.4153202 0-8-3.5846798-8-8V8c0-4.4153202 3.5846798-8 8-8z"/>
    <text font-size="0" style="white-space:pre">
      <tspan x="96" y="62" fill="rgb(0,0,0)" font-family="Segoe UI Black" font-size="32" font-weight="900" style="white-space:pre;text-transform:none">Checkout</tspan>
    </text>
  </g>
  <text font-size="0" style="white-space:pre">
    <tspan x="553" y="1754" fill="rgb(0,0,0)" font-family="Segoe UI Black" font-size="64" font-weight="900" style="white-space:pre;text-transform:none" font-style="italic">999.99$</tspan>
  </text>
  <text font-size="0" style="white-space:pre">
    <tspan x="326" y="1754" fill="rgb(0,0,0)" font-family="Segoe UI Black" font-size="64" font-weight="900" style="white-space:pre;text-transform:none" font-style="italic">Total</tspan>
  </text>
  <g transform="translate(109 543)">
    <text font-size="0" style="white-space:pre">
      <tspan x="518" y="120" fill="rgb(0,0,0)" font-family="Segoe UI Black" font-size="24" font-weight="900" style="white-space:pre;text-transform:none"> 9.99 $/kg</tspan>
    </text>
    <text font-size="0" style="white-space:pre">
      <tspan x="176" y="121" fill="rgb(0,0,0)" font-family="Segoe UI Black" font-size="32" font-weight="900" style="white-space:pre;text-transform:none">Short Description</tspan>
    </text>
    <text font-size="0" style="white-space:pre">
      <tspan x="507" y="78" fill="rgb(0,0,0)" font-family="Segoe UI Black" font-size="64" font-weight="900" style="white-space:pre;text-transform:none" font-style="italic">9.99$</tspan>
    </text>
    <text font-size="0" style="white-space:pre">
      <tspan x="319" y="64" fill="rgb(0,0,0)" font-family="Segoe UI Black" font-size="32" font-weight="900" style="white-space:pre;text-transform:none">Size</tspan>
    </text>
    <text font-size="0" style="white-space:pre">
      <tspan x="176" y="66" fill="rgb(0,0,0)" font-family="Segoe UI Black" font-size="48" font-weight="900" style="white-space:pre;text-transform:none">Item</tspan>
    </text>
    <ellipse cx="71.5" cy="71.5" fill="rgb(0,0,0)" rx="71.5" ry="71.5"/>
    <g transform="translate(767 45)">
      <path fill="rgb(255,255,255)" fill-rule="evenodd" d="M8 0h104c4.4153202 0 8 3.5846798 8 8v19c0 4.4153202-3.5846798 8-8 8H8c-4.4153202 0-8-3.5846798-8-8V8c0-4.4153202 3.5846798-8 8-8z"/>
      <text font-size="0" style="white-space:pre">
        <tspan x="20" y="28" fill="rgb(0,0,0)" font-family="Segoe UI Black" font-size="24" font-weight="900" style="white-space:pre;text-transform:none"> 0.00 $</tspan>
      </text>
    </g>
    <g transform="translate(824 89)">
      <path fill="rgb(255,255,255)" fill-rule="evenodd" d="M8 0h47c4.4153202 0 8 3.5846798 8 8v19c0 4.4153202-3.5846798 8-8 8H8c-4.4153202 0-8-3.5846798-8-8V8c0-4.4153202 3.5846798-8 8-8z"/>
      <text font-size="0" style="white-space:pre">
        <tspan x="7" y="27" fill="rgb(0,0,0)" font-family="Segoe UI Black" font-size="24" font-weight="900" style="white-space:pre;text-transform:none">0</tspan>
      </text>
      <g transform="translate(28)">
        <rect width="35" height="17" x="0" y="0" fill="rgb(130,130,130)"/>
        <path fill="none" stroke="rgb(255,255,255)" stroke-linecap="butt" stroke-linejoin="miter" stroke-width="1" d="M10 12l7.5-7"/>
        <path fill="none" stroke="rgb(255,255,255)" stroke-linecap="butt" stroke-linejoin="miter" stroke-width="1" d="M17.2500021 4.74999803l6.9999958 7.50000394"/>
      </g>
      <g transform="translate(28 18)">
        <rect width="35" height="17" x="0" y="0" fill="rgb(130,130,130)"/>
        <path fill="none" stroke="rgb(255,255,255)" stroke-linecap="butt" stroke-linejoin="miter" stroke-width="1" d="M17 12l7.5-7"/>
        <path fill="none" stroke="rgb(255,255,255)" stroke-linecap="butt" stroke-linejoin="miter" stroke-width="1" d="M16.99999368 12.5000059l-6.99998736-7.5000118"/>
      </g>
    </g>
  </g>
</svg>
