<svg xmlns="http://www.w3.org/2000/svg" width="1080" height="1920" viewBox="0 0 1080 1920">
  <g transform="translate(50 50)">
    <path fill="rgb(200,200,200)" fill-rule="evenodd" d="M8 0h150c4.4153202 0 8 3.5846798 8 8v64c0 4.4153202-3.5846798 8-8 8H8c-4.4153202 0-8-3.5846798-8-8V8c0-4.4153202 3.5846798-8 8-8z"/>
    <text font-size="0" style="white-space:pre">
      <tspan x="37" y="50" fill="rgb(0,0,0)" font-family="Segoe UI Black" font-size="24" font-weight="900" style="white-space:pre;text-transform:none" font-style="italic"><- Back</tspan>
    </text>
  </g>
  <path fill="rgb(200,200,200)" fill-rule="evenodd" d="M0 178c0-4.418278 3.581722-8 8-8h1064c4.418278 0 8 3.581722 8 8v1064c0 4.418278-3.581722 8-8 8H8c-4.418278 0-8-3.581722-8-8V178z"/>
  <text font-size="0" style="white-space:pre">
    <tspan x="157.331" y="761" fill="rgb(0,0,0)" font-family="Segoe UI Black" font-size="128" font-weight="900" style="white-space:pre;text-transform:none">Google Map</tspan>
  </text>
  <path fill="rgb(200,200,200)" fill-rule="evenodd" d="M8 1620h1064c4.4153202 0 8 3.5846798 8 8v284c0 4.4153202-3.5846798 8-8 8H8c-4.4153202 0-8-3.5846798-8-8v-284c0-4.4153202 3.5846798-8 8-8z"/>
  <text font-size="0" style="white-space:pre">
    <tspan x="91" y="1820" fill="rgb(0,0,0)" font-family="Segoe UI Black" font-size="128" font-weight="900" style="white-space:pre;text-transform:none">ETA</tspan>
  </text>
  <text font-size="0" style="white-space:pre">
    <tspan x="510" y="1795" fill="rgb(0,0,0)" font-family="Segoe UI Black" font-size="64" font-weight="900" style="white-space:pre;text-transform:none">number in route</tspan>
  </text>
</svg>
