<svg xmlns="http://www.w3.org/2000/svg" width="1080" height="1920" viewBox="0 0 1080 1920">
  <g transform="translate(50 50)">
    <path fill="rgb(200,200,200)" fill-rule="evenodd" d="M8 0h150c4.4153202 0 8 3.5846798 8 8v64c0 4.4153202-3.5846798 8-8 8H8c-4.4153202 0-8-3.5846798-8-8V8c0-4.4153202 3.5846798-8 8-8z"/>
    <text font-size="0" style="white-space:pre">
      <tspan x="37" y="50" fill="rgb(0,0,0)" font-family="Segoe UI Black" font-size="24" font-weight="900" style="white-space:pre;text-transform:none" font-style="italic"><- Back</tspan>
    </text>
  </g>
  <text font-size="0" style="white-space:pre">
    <tspan x="295" y="101" fill="rgb(0,0,0)" font-family="Segoe UI Black" font-size="48" font-weight="900" style="white-space:pre;text-transform:none">Localization Settings</tspan>
  </text>
  <path fill="rgb(200,200,200)" fill-rule="evenodd" d="M134 806h874c4.4153202 0 8 3.5846798 8 8v128c0 4.4153202-3.5846798 8-8 8H134c-4.4153202 0-8-3.5846798-8-8V814c0-4.4153202 3.5846798-8 8-8z"/>
  <path fill="rgb(200,200,200)" fill-rule="evenodd" d="M134 970h874c4.4153202 0 8 3.5846798 8 8v128c0 4.4153202-3.5846798 8-8 8H134c-4.4153202 0-8-3.5846798-8-8V978c0-4.4153202 3.5846798-8 8-8z"/>
  <text font-size="0" style="white-space:pre">
    <tspan x="355" y="1061" fill="rgb(0,0,0)" font-family="Segoe UI Black" font-size="48" font-weight="900" style="white-space:pre;text-transform:none">Language Spinner</tspan>
  </text>
  <g transform="translate(396 1280)">
    <path fill="rgb(255,229,0)" fill-rule="evenodd" d="M8 1h273c4.4153202 0 8 3.5846798 8 8v69.36895674c0 4.4153202-3.5846798 8-8 8H8c-4.4153202 0-8-3.5846798-8-8V9c0-4.4153202 3.5846798-8 8-8z"/>
    <text font-size="0" style="white-space:pre">
      <tspan x="30" y="68" fill="rgb(0,0,0)" font-family="Segoe UI Black" font-size="64" font-weight="900" style="white-space:pre;text-transform:none">Update</tspan>
    </text>
  </g>
  <text font-size="0" style="white-space:pre">
    <tspan x="421" y="897" fill="rgb(0,0,0)" font-family="Segoe UI Black" font-size="48" font-weight="900" style="white-space:pre;text-transform:none">Region Spinner</tspan>
  </text>
</svg>
