<svg xmlns="http://www.w3.org/2000/svg" width="1080" height="1920" viewBox="0 0 1080 1920">
  <rect width="1080" height="1920" x="0" y="0" fill="rgb(255,255,255)"/>
  <path fill="rgb(200,200,200)" fill-rule="evenodd" d="M104 328h874c4.4153202 0 8 3.5846798 8 8v128c0 4.4153202-3.5846798 8-8 8H104c-4.4153202 0-8-3.5846798-8-8V336c0-4.4153202 3.5846798-8 8-8z"/>
  <text font-size="0" style="white-space:pre">
    <tspan x="121" y="419" fill="rgb(0,0,0)" font-family="Segoe UI Black" font-size="48" font-weight="900" style="white-space:pre;text-transform:none">name:</tspan>
  </text>
  <path fill="rgb(200,200,200)" fill-rule="evenodd" d="M103 492h874c4.4153202 0 8 3.5846798 8 8v128c0 4.4153202-3.5846798 8-8 8H103c-4.4153202 0-8-3.5846798-8-8V500c0-4.4153202 3.5846798-8 8-8z"/>
  <text font-size="0" style="white-space:pre">
    <tspan x="121" y="583" fill="rgb(0,0,0)" font-family="Segoe UI Black" font-size="48" font-weight="900" style="white-space:pre;text-transform:none">phone:</tspan>
  </text>
  <text font-size="0" style="white-space:pre">
    <tspan x="266" y="118" fill="rgb(0,0,0)" font-family="Segoe UI Black" font-size="64" font-weight="900" style="white-space:pre;text-transform:none">User Registration</tspan>
  </text>
  <text font-size="0" style="white-space:pre">
    <tspan x="102" y="294" fill="rgb(0,0,0)" font-family="Segoe UI Black" font-size="48" font-weight="900" style="white-space:pre;text-transform:none">Basic Information: </tspan>
  </text>
  <g transform="translate(95 698)">
    <text font-size="0" style="white-space:pre">
      <tspan x="20" y="51" fill="rgb(0,0,0)" font-family="Segoe UI Black" font-size="48" font-weight="900" style="white-space:pre;text-transform:none">Address:</tspan>
    </text>
    <path fill="rgb(200,200,200)" fill-rule="evenodd" d="M8 250h874c4.4153202 0 8 3.5846798 8 8v128c0 4.4153202-3.5846798 8-8 8H8c-4.4153202 0-8-3.5846798-8-8V258c0-4.4153202 3.5846798-8 8-8z"/>
    <text font-size="0" style="white-space:pre">
      <tspan x="20" y="341" fill="rgb(0,0,0)" font-family="Segoe UI Black" font-size="48" font-weight="900" style="white-space:pre;text-transform:none">Line 1:</tspan>
    </text>
    <path fill="rgb(200,200,200)" fill-rule="evenodd" d="M8 414h874c4.4153202 0 8 3.5846798 8 8v128c0 4.4153202-3.5846798 8-8 8H8c-4.4153202 0-8-3.5846798-8-8V422c0-4.4153202 3.5846798-8 8-8z"/>
    <text font-size="0" style="white-space:pre">
      <tspan x="29" y="505" fill="rgb(0,0,0)" font-family="Segoe UI Black" font-size="48" font-weight="900" style="white-space:pre;text-transform:none">Line 2:</tspan>
    </text>
    <path fill="rgb(200,200,200)" fill-rule="evenodd" d="M8 578h874c4.4153202 0 8 3.5846798 8 8v128c0 4.4153202-3.5846798 8-8 8H8c-4.4153202 0-8-3.5846798-8-8V586c0-4.4153202 3.5846798-8 8-8z"/>
    <text font-size="0" style="white-space:pre">
      <tspan x="29" y="669" fill="rgb(0,0,0)" font-family="Segoe UI Black" font-size="48" font-weight="900" style="white-space:pre;text-transform:none">City:</tspan>
    </text>
    <path fill="rgb(200,200,200)" fill-rule="evenodd" d="M8 742h874c4.4153202 0 8 3.5846798 8 8v128c0 4.4153202-3.5846798 8-8 8H8c-4.4153202 0-8-3.5846798-8-8V750c0-4.4153202 3.5846798-8 8-8z"/>
    <text font-size="0" style="white-space:pre">
      <tspan x="29" y="833" fill="rgb(0,0,0)" font-family="Segoe UI Black" font-size="48" font-weight="900" style="white-space:pre;text-transform:none">Postcode:</tspan>
    </text>
    <path fill="rgb(200,200,200)" fill-rule="evenodd" d="M8 84h874c4.4153202 0 8 3.5846798 8 8v128c0 4.4153202-3.5846798 8-8 8H8c-4.4153202 0-8-3.5846798-8-8V92c0-4.4153202 3.5846798-8 8-8z"/>
    <text font-size="0" style="white-space:pre">
      <tspan x="20" y="175" fill="rgb(0,0,0)" font-family="Segoe UI Black" font-size="48" font-weight="900" style="white-space:pre;text-transform:none">Country:</tspan>
    </text>
  </g>
  <g transform="translate(396 1671)">
    <path fill="rgb(255,229,0)" fill-rule="evenodd" d="M8 1h273c4.4153202 0 8 3.5846798 8 8v69.36895674c0 4.4153202-3.5846798 8-8 8H8c-4.4153202 0-8-3.5846798-8-8V9c0-4.4153202 3.5846798-8 8-8z"/>
    <text font-size="0" style="white-space:pre">
      <tspan x="12" y="68" fill="rgb(0,0,0)" font-family="Segoe UI Black" font-size="64" font-weight="900" style="white-space:pre;text-transform:none">Register</tspan>
    </text>
  </g>
  <g transform="translate(950 50)">
    <path fill="rgb(200,200,200)" fill-rule="evenodd" d="M8 0h64c4.4153202 0 8 3.5846798 8 8v64c0 4.4153202-3.5846798 8-8 8H8c-4.4153202 0-8-3.5846798-8-8V8c0-4.4153202 3.5846798-8 8-8z"/>
    <text font-size="0" style="white-space:pre">
      <tspan x="1" y="54" fill="rgb(0,0,0)" font-family="Segoe UI Black" font-size="32" font-weight="900" style="white-space:pre;text-transform:none" font-style="italic">Lang</tspan>
    </text>
  </g>
  <text font-size="0" style="white-space:pre">
    <tspan x="396" y="574" fill="rgb(255,0,0)" font-family="Segoe UI Black" font-size="24" font-weight="900" style="white-space:pre;text-transform:none" font-style="italic">Needs verification</tspan>
  </text>
</svg>
