<svg xmlns="http://www.w3.org/2000/svg" width="1080" height="3840" viewBox="0 0 1080 3840">
  <rect width="1080" height="3840" x="0" y="0" fill="rgb(255,255,255)"/>
  <text font-size="0" style="white-space:pre">
    <tspan x="222" y="118" fill="rgb(0,0,0)" font-family="Segoe UI Black" font-size="64" font-weight="900" style="white-space:pre;text-transform:none">Vendor Registration</tspan>
  </text>
  <g transform="translate(95 1382)">
    <text font-size="0" style="white-space:pre">
      <tspan x="7" y="51" fill="rgb(0,0,0)" font-family="Segoe UI Black" font-size="48" font-weight="900" style="white-space:pre;text-transform:none">Contact Information:</tspan>
    </text>
    <path fill="rgb(200,200,200)" fill-rule="evenodd" d="M8 91h874c4.4153202 0 8 3.5846798 8 8v128c0 4.4153202-3.5846798 8-8 8H8c-4.4153202 0-8-3.5846798-8-8V99c0-4.4153202 3.5846798-8 8-8z"/>
    <text font-size="0" style="white-space:pre">
      <tspan x="21" y="182" fill="rgb(0,0,0)" font-family="Segoe UI Black" font-size="48" font-weight="900" style="white-space:pre;text-transform:none">Contact number:</tspan>
    </text>
    <path fill="rgb(200,200,200)" fill-rule="evenodd" d="M8 258h874c4.4153202 0 8 3.5846798 8 8v128c0 4.4153202-3.5846798 8-8 8H8c-4.4153202 0-8-3.5846798-8-8V266c0-4.4153202 3.5846798-8 8-8z"/>
    <text font-size="0" style="white-space:pre">
      <tspan x="29" y="349" fill="rgb(0,0,0)" font-family="Segoe UI Black" font-size="48" font-weight="900" style="white-space:pre;text-transform:none">Contact email:</tspan>
    </text>
  </g>
  <g transform="translate(95 2047)">
    <text font-size="0" style="white-space:pre">
      <tspan x="20" y="51" fill="rgb(0,0,0)" font-family="Segoe UI Black" font-size="48" font-weight="900" style="white-space:pre;text-transform:none">Address:</tspan>
    </text>
    <path fill="rgb(200,200,200)" fill-rule="evenodd" d="M8 250h874c4.4153202 0 8 3.5846798 8 8v128c0 4.4153202-3.5846798 8-8 8H8c-4.4153202 0-8-3.5846798-8-8V258c0-4.4153202 3.5846798-8 8-8z"/>
    <text font-size="0" style="white-space:pre">
      <tspan x="20" y="341" fill="rgb(0,0,0)" font-family="Segoe UI Black" font-size="48" font-weight="900" style="white-space:pre;text-transform:none">Line 1:</tspan>
    </text>
    <path fill="rgb(200,200,200)" fill-rule="evenodd" d="M8 414h874c4.4153202 0 8 3.5846798 8 8v128c0 4.4153202-3.5846798 8-8 8H8c-4.4153202 0-8-3.5846798-8-8V422c0-4.4153202 3.5846798-8 8-8z"/>
    <text font-size="0" style="white-space:pre">
      <tspan x="29" y="505" fill="rgb(0,0,0)" font-family="Segoe UI Black" font-size="48" font-weight="900" style="white-space:pre;text-transform:none">Line 2:</tspan>
    </text>
    <path fill="rgb(200,200,200)" fill-rule="evenodd" d="M8 578h874c4.4153202 0 8 3.5846798 8 8v128c0 4.4153202-3.5846798 8-8 8H8c-4.4153202 0-8-3.5846798-8-8V586c0-4.4153202 3.5846798-8 8-8z"/>
    <text font-size="0" style="white-space:pre">
      <tspan x="29" y="669" fill="rgb(0,0,0)" font-family="Segoe UI Black" font-size="48" font-weight="900" style="white-space:pre;text-transform:none">City:</tspan>
    </text>
    <path fill="rgb(200,200,200)" fill-rule="evenodd" d="M8 742h874c4.4153202 0 8 3.5846798 8 8v128c0 4.4153202-3.5846798 8-8 8H8c-4.4153202 0-8-3.5846798-8-8V750c0-4.4153202 3.5846798-8 8-8z"/>
    <text font-size="0" style="white-space:pre">
      <tspan x="29" y="833" fill="rgb(0,0,0)" font-family="Segoe UI Black" font-size="48" font-weight="900" style="white-space:pre;text-transform:none">Postcode:</tspan>
    </text>
    <path fill="rgb(200,200,200)" fill-rule="evenodd" d="M8 84h874c4.4153202 0 8 3.5846798 8 8v128c0 4.4153202-3.5846798 8-8 8H8c-4.4153202 0-8-3.5846798-8-8V92c0-4.4153202 3.5846798-8 8-8z"/>
    <text font-size="0" style="white-space:pre">
      <tspan x="20" y="175" fill="rgb(0,0,0)" font-family="Segoe UI Black" font-size="48" font-weight="900" style="white-space:pre;text-transform:none">Country:</tspan>
    </text>
  </g>
  <g transform="translate(396 3269)">
    <path fill="rgb(255,229,0)" fill-rule="evenodd" d="M8 1h273c4.4153202 0 8 3.5846798 8 8v69.36895674c0 4.4153202-3.5846798 8-8 8H8c-4.4153202 0-8-3.5846798-8-8V9c0-4.4153202 3.5846798-8 8-8z"/>
    <text font-size="0" style="white-space:pre">
      <tspan x="12" y="68" fill="rgb(0,0,0)" font-family="Segoe UI Black" font-size="64" font-weight="900" style="white-space:pre;text-transform:none">Register</tspan>
    </text>
  </g>
  <g transform="translate(95 243)">
    <path fill="rgb(200,200,200)" fill-rule="evenodd" d="M8 741h874c4.4153202 0 8 3.5846798 8 8v128c0 4.4153202-3.5846798 8-8 8H8c-4.4153202 0-8-3.5846798-8-8V749c0-4.4153202 3.5846798-8 8-8z"/>
    <text font-size="0" style="white-space:pre">
      <tspan x="36" y="832" fill="rgb(0,0,0)" font-family="Segoe UI Black" font-size="48" font-weight="900" style="white-space:pre;text-transform:none">Categories:</tspan>
    </text>
    <path fill="rgb(200,200,200)" fill-rule="evenodd" d="M9 85h874c4.4153202 0 8 3.5846798 8 8v128c0 4.4153202-3.5846798 8-8 8H9c-4.4153202 0-8-3.5846798-8-8V93c0-4.4153202 3.5846798-8 8-8z"/>
    <text font-size="0" style="white-space:pre">
      <tspan x="26" y="176" fill="rgb(0,0,0)" font-family="Segoe UI Black" font-size="48" font-weight="900" style="white-space:pre;text-transform:none">Trading name:</tspan>
    </text>
    <path fill="rgb(200,200,200)" fill-rule="evenodd" d="M8 249h874c4.4153202 0 8 3.5846798 8 8v128c0 4.4153202-3.5846798 8-8 8H8c-4.4153202 0-8-3.5846798-8-8V257c0-4.4153202 3.5846798-8 8-8z"/>
    <text font-size="0" style="white-space:pre">
      <tspan x="26" y="340" fill="rgb(0,0,0)" font-family="Segoe UI Black" font-size="48" font-weight="900" style="white-space:pre;text-transform:none">Unique ID:</tspan>
    </text>
    <text font-size="0" style="white-space:pre">
      <tspan x="7" y="51" fill="rgb(0,0,0)" font-family="Segoe UI Black" font-size="48" font-weight="900" style="white-space:pre;text-transform:none">Basic Information: </tspan>
    </text>
    <path fill="rgb(200,200,200)" fill-rule="evenodd" d="M8 415h874c4.4153202 0 8 3.5846798 8 8v128c0 4.4153202-3.5846798 8-8 8H8c-4.4153202 0-8-3.5846798-8-8V423c0-4.4153202 3.5846798-8 8-8z"/>
    <text font-size="0" style="white-space:pre">
      <tspan x="26" y="506" fill="rgb(0,0,0)" font-family="Segoe UI Black" font-size="48" font-weight="900" style="white-space:pre;text-transform:none">Country:</tspan>
    </text>
    <path fill="rgb(200,200,200)" fill-rule="evenodd" d="M8 580h874c4.4153202 0 8 3.5846798 8 8v128c0 4.4153202-3.5846798 8-8 8H8c-4.4153202 0-8-3.5846798-8-8V588c0-4.4153202 3.5846798-8 8-8z"/>
    <text font-size="0" style="white-space:pre">
      <tspan x="26" y="671" fill="rgb(0,0,0)" font-family="Segoe UI Black" font-size="48" font-weight="900" style="white-space:pre;text-transform:none">Tax Registration:</tspan>
    </text>
  </g>
  <g transform="translate(950 50)">
    <path fill="rgb(200,200,200)" fill-rule="evenodd" d="M8 0h64c4.4153202 0 8 3.5846798 8 8v64c0 4.4153202-3.5846798 8-8 8H8c-4.4153202 0-8-3.5846798-8-8V8c0-4.4153202 3.5846798-8 8-8z"/>
    <text font-size="0" style="white-space:pre">
      <tspan x="1" y="54" fill="rgb(0,0,0)" font-family="Segoe UI Black" font-size="32" font-weight="900" style="white-space:pre;text-transform:none" font-style="italic">Lang</tspan>
    </text>
  </g>
  <text font-size="0" style="white-space:pre">
    <tspan x="109" y="3057" fill="rgb(0,0,0)" font-family="Segoe UI Black" font-size="64" font-weight="900" style="white-space:pre;text-transform:none">[PAYMENT INFO]</tspan>
  </text>
  <text font-size="0" style="white-space:pre">
    <tspan x="86" y="3143" fill="rgb(0,0,0)" font-family="Segoe UI Black" font-size="64" font-weight="900" style="white-space:pre;text-transform:none">[OPENING HOURS]</tspan>
  </text>
</svg>
