<?xml version="1.0" encoding="UTF-8" standalone="no"?>
<!-- Created with Inkscape (http://www.inkscape.org/) -->

<svg
   xmlns:dc="http://purl.org/dc/elements/1.1/"
   xmlns:cc="http://creativecommons.org/ns#"
   xmlns:rdf="http://www.w3.org/1999/02/22-rdf-syntax-ns#"
   xmlns:svg="http://www.w3.org/2000/svg"
   xmlns="http://www.w3.org/2000/svg"
   xmlns:sodipodi="http://sodipodi.sourceforge.net/DTD/sodipodi-0.dtd"
   xmlns:inkscape="http://www.inkscape.org/namespaces/inkscape"
   width="3000px"
   height="2000px"
   viewBox="0 0 3000 2000"
   version="1.1"
   id="SVGRoot"
   inkscape:version="0.92.4 (5da689c313, 2019-01-14)"
   sodipodi:docname="Milkman_Logo_Draft.svg">
  <defs
     id="defs10" />
  <sodipodi:namedview
     id="base"
     pagecolor="#ffffff"
     bordercolor="#666666"
     borderopacity="1.0"
     inkscape:pageopacity="0.0"
     inkscape:pageshadow="2"
     inkscape:zoom="0.24748737"
     inkscape:cx="670.82552"
     inkscape:cy="878.56984"
     inkscape:document-units="px"
     inkscape:current-layer="layer1"
     showgrid="false"
     inkscape:window-width="1920"
     inkscape:window-height="1017"
     inkscape:window-x="-8"
     inkscape:window-y="-8"
     inkscape:window-maximized="1" />
  <metadata
     id="metadata13">
    <rdf:RDF>
      <cc:Work
         rdf:about="">
        <dc:format>image/svg+xml</dc:format>
        <dc:type
           rdf:resource="http://purl.org/dc/dcmitype/StillImage" />
        <dc:title></dc:title>
      </cc:Work>
    </rdf:RDF>
  </metadata>
  <g
     inkscape:label="Layer 1"
     inkscape:groupmode="layer"
     id="layer1">
    <text
       xml:space="preserve"
       style="font-style:normal;font-weight:normal;font-size:432.04006958px;line-height:1.25;font-family:sans-serif;letter-spacing:0px;word-spacing:0px;fill:#000000;fill-opacity:1;stroke:none;stroke-width:10.80100155"
       x="1141.573"
       y="1845.3103"
       id="text3782"><tspan
         sodipodi:role="line"
         id="tspan3780"
         x="1141.573"
         y="1845.3103"
         style="stroke-width:10.80100155;-inkscape-font-specification:'Bauhaus 93, ';font-family:'Bauhaus 93';font-weight:normal;font-style:normal;font-stretch:normal;font-variant:normal;font-size:432.03999837px;text-anchor:start;text-align:start;writing-mode:lr;font-variant-ligatures:normal;font-variant-caps:normal;font-variant-numeric:normal;font-feature-settings:normal">Milkman</tspan></text>
    <g
       transform="translate(-18.437671,176.15276)"
       id="g44">
      <path
         inkscape:connector-curvature="0"
         d="m 817.03,15.28 c 8.84,-2.01 17.89,-3.23 26.97,-3.06 15.06,-0.15 29.73,3.69 44.4,6.61 10.1,2.09 20.3199,3.65 30.6,4.62 20.66,1.88 41.4,3.65 61.73,8 29.28,5.98 57.28,16.9 84.21,29.67 37.5901,17.86 73.7101,38.74 108.5701,61.44 15.4,10.27 30.48,21.22 43.6899,34.25 4.15,4.02 10.4,7.52 16.14,4.65 5.1801,-1.37 7.48,-6.83 8.3101,-11.63 -0.16,-6.63 0.7999,-13.2 1.49,-19.78 1.79,-10.41 10.33,-18.89 20.51,-21.33 6.9,-2.41 14.21,-1.76 21.38,-1.8 21.11,2.47 40.65,11.38 59.73,20.25 19.88,9.37 39.4299,19.44 59.39,28.65 15.5599,7.27 31.62,13.38 47.71,19.36 10.85,4.16 21.9301,8.03 31.96,13.99 5.4601,3.34 10.87,7.94 12.41,14.44 1.71,7.85 -1.2999,15.69 -5.2,22.39 -12.4601,20.57 -32.48,35.07 -52.6901,47.36 -3.46,2.19 -7.11,4.12 -10.15,6.89 0.13,0.28 0.39,0.83 0.52,1.1 11.7001,0.96 23.51,0.6 35.17,2.17 38.4399,3.89 76.24,14.45 110.87,31.65 17.49,8.57 34.42,18.41 50.12,29.97 9.63,7.21 19,15.13 25.96,25.04 6.41,9.1 10,20.6 7.9501,31.73 -0.74,7.11 -3.8301,13.85 -3.86,21.04 0,4.71 4.97,6.52 8.8199,7.34 9.21,1.9 18.65,2.31 27.98,3.37 25.3,2.7 50.3101,7.66 75.03,13.65 18.37,4.54 36.61,9.79 54.25,16.71 21.11,8.11 41.25,18.8 63.14,24.79 4.51,1.84 10.33,1.95 13.46,6.13 -7.84,3.79 -16.87,2.3 -25.1699,1.31 -17.7201,-2.97 -34.51,-9.65 -51.5,-15.24 -22.8101,-7.74 -46.0701,-14.45 -69.9501,-17.91 -22.71,-3.33 -45.9,-4.48 -68.73,-1.67 -17.3,2.13 -34.26,7.55 -49.1899,16.61 -18.8101,11.23 -34.8101,26.41 -50.41,41.61 -23.6901,23.31 -46.4401,47.56 -70.75,70.23 -24.04,22.59 -49.76,44.16 -79.76,58.4 -20.1901,9.81 -42.5601,15.9 -65.12,15.18 -24,-0.09 -47.13,-7.7401 -70.97,-9.3 -22.79,-1.66 -45.03,5.33 -65.76,14.11 -6.4701,2.26 -12.66,6.1 -19.6901,6.12 1.76,-6.09 6.76,-10.36 10.65,-15.11 13.26,-14.7401 26.99,-29.0601 39.9399,-44.08 13.1901,-15.37 25.2301,-32.06 33.1201,-50.82 6.7999,-15.84 10.2,-32.88 12.34,-49.92 3.46,-26.11 3.5499,-52.58 8.0399,-78.56 2.4801,-14.18 7.5,-28.84 18.66,-38.56 12.9301,-11.29 30.2101,-15.49 46.73,-18.23 27.05,-4.25 54.55,-4.32 81.8501,-3.46 21.0299,1.08 42.1599,2.79 62.6899,7.67 8.53,2.23 17.5601,4.72 24.13,10.93 4.25,3.92 5.6899,10.18 4.2,15.69 -2.3099,8.84 -8.0699,16.22 -13.76,23.15 -10.8199,12.53 -23.0699,23.72 -35.4199,34.71 -30.6801,26.8 -62.72,52 -94.23,77.81 -19.7201,16.48 -40.11,32.45 -57.12,51.83 -4.3,5.44 -9.25,11.31 -9.63,18.56 -0.2201,4.68 4.0599,7.67 7.9399,9.22 14.37,5.88 30.5801,5.65 45.54,2.26 18.77,-4.21 36.15,-12.92 52.6799,-22.54 30.8501,-18.43 59.04,-41.16 84.3501,-66.64 23.6899,-23.91 45.22,-49.97 64.22,-77.75 9.13,-13.56 17.91,-27.46 24.51,-42.45 4.2899,-9.85 7.6599,-20.27 8.23,-31.06 0.35,-10.53 -2.85,-21.44 -9.92,-29.4 -4.75,-5.4 -10.77,-9.49 -16.97,-13.04 -15.9399,-8.72 -33.12,-14.81 -50.28,-20.6 -24.34,-7.95 -49.0699,-14.82 -74.1799,-19.9 -21.01,-4.19 -42.5,-7.48 -63.98,-5.78 -20.3601,1.48 -39.78,8.72 -57.9401,17.69 -32.92,16.52 -63.64,36.96 -95.46,55.44 -5.5,2.69 -10.74,6.65 -17.04,7.06 1.13,-5.63 5.51,-9.69 8.8101,-14.13 6.99,-8.71 14.58,-17.01 20.48,-26.53 2.98,-5.13 5.86,-10.78 5.64,-16.88 -0.3301,-5.68 -4.4401,-10.5 -9.4701,-12.79 -5.0699,-2.61 -10.87,-2.67 -16.3199,-3.81 -5.58,-1.24 -11.0601,1.23 -16.65,1.07 -21.6899,2.18 -43.1,6.46 -64.72,9.05 -5.72,1.15 -11.5701,0.48 -17.27,1.66 -10,0.25 -21.66,-0.29 -28.89,-8.21 -8.14,-9.07 -11.28,-21.37 -13.72,-33.01 -0.8101,-8.27 -2.5601,-16.59 -1.52,-24.92 0.89,-5.93 1.29,-11.98 3.37,-17.65 3.11,-8.82 7.4,-17.43 13.85,-24.29 1.4601,-1.69 3.53,-2.61 5.63,-3.26 1.6801,13.2 -2.52,26.1 -3.75,39.14 -0.4399,6.43 1.3201,12.74 3.23,18.81 2.55,7.84 9.41,14.36 17.76,15.38 9.17,1.17 18.2301,-1.66 26.9401,-4.2 12.28,-3.77 24.35,-8.3 36.89,-11.19 12.72,-3.18 25.7999,-5.15 38.09,-9.88 7.2,-2.73 14,-7.17 18.3,-13.69 6.0399,-8.93 8.0699,-19.69 11.1699,-29.82 0.8401,-2.29 1.87,-5.34 4.6801,-5.72 2.74,0.6 4.9199,2.56 6.95,4.41 7.13,6.87 13.48,14.5 20.66,21.33 10.77,10.2 22.35,20.09 36.22,25.81 17.25,7.12 37.4601,5.99 54.0801,-2.35 11.8999,-5.93 22.83,-14.48 30.12,-25.71 4.1799,-6.51 6.8999,-14.75 4.1499,-22.35 -3.1799,-8.69 -10.62,-14.82 -17.7799,-20.22 -14.38,-10.17 -30,-18.43 -45.7201,-26.31 -19.75,-10 -39.95,-19.08 -60.36,-27.62 -8.35,-3.07 -16.5699,-6.54 -25.1,-9.08 -4.4399,-0.72 -8.6899,-2.75 -13.25,-2.3 -2.84,0.11 -5.98,-0.53 -8.37,1.42 -4.76,2.81 -6.15,8.53 -7.36,13.52 0.48,6.31 -0.76,12.71 0.77,18.92 1.49,9.47 3.7899,18.85 7.4199,27.75 -0.4099,0.47 -1.24,1.43 -1.6499,1.91 -8.87,-4.41 -18.6001,-8.87 -28.74,-7.65 -9.15,1.69 -18.04,4.74 -26.3301,8.95 -2.9299,1.4 -5.98,-0.75 -7.75,-2.98 -6.75,-9 -12.14,-18.99 -19.4399,-27.59 -17.49,-20.92 -40.6801,-36.32 -65.1801,-47.89 -11.28,-5.87 -22.99,-10.88 -34.96,-15.12 -16.04,-5.53 -32.38,-10.72 -49.3301,-12.42 -19.0099,-2.34 -38.0399,1.92 -55.9299,8.09 -19.04,6.55 -38.93,11.2 -59.15,11.29 -16.59,0.4 -33.41,-2.08 -48.72,-8.64 -21.63,-9.15 -40.65,-23.97 -63.36,-30.61 -22.54,-6.29 -46.29,-1.36 -68,5.77 -20.03,6.42 -39.06,15.52 -57.5699,25.41 -23.25,13.16 -45.95,28.05 -64.47,47.49 -13.18,12.72 -23.32,28.31 -31.31,44.71 -4.95,9.5 -8.86,19.5 -14.03,28.89 -1.09,2.15 -2.8,3.86 -4.63,5.39 -2.89,-3.62 -3.5,-8.31 -4.37,-12.7 -1.61,-8.88 -3.51,-17.73 -6.4301,-26.28 -2.83,-8.22 -7.5099,-16.12 -14.81,-21.11 -10.53,-7.33 -23.37,-10.28 -35.91,-11.92 -13.39,-1.63 -26.9,-2.05 -40.38,-2.16 -10.63,1.02 -21.32,0.6 -31.98,1.02 -53.11,2.17 -106.11,6.39 -159.17,9.3 -7.24,0.95 -14.58,0.2 -21.82,1.2 -8.99,0.62 -18.03,0.09 -27,1.14 -37.18,0.28 -74.45,1.26 -111.56,-1.44 -20.21,-1.06 -40.31,-3.88 -60.09,-8.14 -4.72,-0.88 -9.41,-2.33 -14.25,-2.23 -1.72,-0.04 -3.47,0.61 -4.6,1.93 -1.64,7.98 4.02,14.72 8.04,20.98 16.82,22.94 43.46,36.65 70.5,43.68 31.91,8.23 65.15,8.89 97.92,8.16 56.15,-2.16 111.93,-9.48 167.93,-13.79 23.31,-1.81 46.68,-3.38 70.09,-3.07 20.76,0.22 42.02,2.12 61.35,10.22 10.26,4.26 19.55,10.81 26.75,19.3 3.46,3.63 6.53,8.58 11.9,9.39 4.64,0.16 7.81,-3.79 11.68,-5.68 1.78,-0.97 4.29,-0.53 5.27,1.37 2.42,4.2 2.41,9.27 2.53,13.98 0.07,21.3 -5.36,42.15 -12.15,62.19 -6.35,18.47 -15.27,35.97 -25.52,52.56 -18.94,30.63 -39.8,60.01 -60.73,89.29 -11.79,16.07 -23.61,32.21 -37.28,46.75 -5.03,5.1 -10.39,10.3 -17.16,12.96 -5.01,1.93 -10.67,0.59 -14.98,-2.37 -7.04,-4.83 -13.12,-10.91 -18.7,-17.33 -15.02,-15.75 -29.38,-32.16 -42.63,-49.43 -10.76,-14.36 -21.24,-29.33 -27.38,-46.32 -3.29,-9.79 -4.86,-21.41 0.71,-30.67 5.27,-8.47 15.52,-11.82 24.92,-12.99 14.01,-1.28 28.11,0 41.99,2 23.14,3.44 45.95,8.69 68.69,14.11 11.69,2.65 23.3,5.71 35.15,7.59 6.69,0.7 14.33,1.49 19.93,-3.08 7.7,-6.11 13.47,-15.3 14.13,-25.25 0.6,-6.74 -3,-13.17 -8.06,-17.38 -5.96,-4.97 -13.11,-8.25 -20.31,-11 -18.68,-7.58 -38.47,-11.77 -58.15,-15.81 -22.17,-4.16 -44.51,-7.47 -67,-9.21 -18.66,-1.41 -37.57,-1.96 -56.11,1.02 -12.51,2.1 -25.84,5.84 -34.49,15.73 -7.92,9.26 -10.1,21.84 -10.72,33.64 -0.81,30.37 4.78,60.77 15.09,89.27 4.04,9.58 7.75,19.31 12.33,28.66 14.07,27.09 31.69,52.31 51.57,75.46 9.93,11.05 20.09,22.36 33.01,29.97 5.81,3.35 12.82,5.66 19.49,3.67 2.59,-0.64 5,-2.24 7.72,-2.24 2.68,2.74 3.71,6.57 5.44,9.9 7.56,16.49 17.93,31.44 26.77,47.23 11.33,20.08 21.41,41.19 26.45,63.81 4.45,19.14 4.27,38.99 2.65,58.46 -2.73,20.57 -6.87,41 -13.21,60.77 -8.02,26.05 -17.86,51.59 -29.64,76.19 -8.71,19 -19.48,36.98 -29.99,55.01 -13.72,20.75 -28.18,41.03 -43.43,60.71 -9.39,12.29 -18.88,24.5 -27.98,37 -6.97,9.96 -14.14,19.95 -18.88,31.21 -2.57,6.51 -4.99,14.0701 -1.81,20.8301 3.15,6.2 10.26,8.76 16.65,10.14 14.2,2.87 28.8,2.08 43.18,3.22 14.11,0.39 27.88,3.72 41.69,6.3199 13.8,2.77 28.18,3.1801 42,0.3101 18.36,-3.67 36.14,-9.6801 54.42,-13.7001 15.36,-3.46 31.06,-5.72 46.84,-5.58 11.8,0.2 23.94,1.48 34.74,6.58 7.68,3.49 14.06,9.61 18,17.0701 4.88,9.11 6.56,19.49 7.58,29.6599 1.24,24.4701 -2.25,49.2001 -10.37,72.3201 -6.85,17.14 -15.51,33.9 -28.02,47.63 -3.85,3.54 -6.21,8.42 -10.42,11.63 -5.38,3.86 -9.92,8.75 -15.36,12.5599 -18.91,14.2101 -41.2,25.12 -65.08,26.86 -19.19,1.8401 -40.83,-1.86 -54.55,-16.5199 -5.03,-4.41 -7.74,-10.6801 -10.45,-16.63 -4.58,-11.3201 -6.95,-23.5801 -6.65,-35.78 -0.05,-11.62 1.78,-23.7 7.73,-33.85 6.89,-11.4 18.48,-18.7001 29.62,-25.42 17.98,-10.6 36.59,-20.0699 54.95,-29.96 16.27,-8.7101 32.53,-17.5801 47.47,-28.47 6.03,-3.64 12.28,-8.78 19.81,-7.7001 7.46,1.14 12.34,7.49 16,13.52 0.13,-3.66 0.49,-7.33 0.11,-10.97 -1.89,-2.9401 -5.69,-3.49 -8.73,-4.5901 -9.73,-2.4399 -19.97,-3.5499 -29.94,-2.0499 -27.28,3.04 -54.08,9.38 -80.62,16.26 -17.05,4.71 -34.19,9.51 -50.34,16.83 -9.37,4.21 -17.58,10.88 -23.8,19.04 -4.5,5.1799 -7.83,11.49 -13.53,15.5399 -3.16,2.4801 -7.36,-0.47 -9.03,-3.3999 -8.3,-13.52 -10.49,-30.01 -20.02,-42.88 -4.06,-5.26 -10.52,-8.5601 -17.09,-9.13 -2.58,-0.37 -5.2,2.0599 -3.37,4.52 5.6,7.2799 12.5,13.5599 17.92,21.0199 3.5,6.29 2.87,14.51 -0.57,20.7201 -5.02,9.59 -10.64,18.86 -15.36,28.6 -8.29,17.29 -17.41,34.38 -29.65,49.23 -4.9,4.12 -8.92,9.55 -15.08,11.91 -4.62,-3.85 -3.4,-10.35 -2.96,-15.6 2.82,-25.4401 10.37,-50.41 9.56,-76.1801 0.18,-12.35 -2.05,-24.61 -4.97,-36.5699 -1.39,-4.41 -2.19,-9.3301 -5.51,-12.78 -3.62,5.58 -4.4,12.39 -5.73,18.77 -4.65,27.6499 -7.33,55.61 -9.26,83.5599 -0.82,6.96 -0.2,14.01 -1.12,20.97 -0.72,13.14 -0.11,26.3 0.98,39.4 1.49,11.85 4.06,23.98 10.69,34.13 7.77,12.16 20.53,20.0601 33.69,25.29 19.33,7.5699 39.96,11.0499 60.45,13.8099 24.97,3.5 50.17,5.27 75.04,9.5 21.86,3.4701 43.38,8.7201 64.98,13.49 22.41,4.9701 45.19,9.4901 68.26,9.02 15.07,-0.1799 29.99,-2.61 44.9,-4.5599 7.35,-0.8 14.77,-1.8201 22.17,-0.9601 11.56,0.9901 22.42,5.64 33.93,7.03 16.15,1.85 33.67,0.7101 47.62,-8.46 13.31,-9.05 21.43,-23.5701 28,-37.87 8.84,-19.24 14,-40.0701 24.54,-58.53 4.1201,-6.96 9.57,-14.01 17.61,-16.51 8.34,-2.5499 17.07,-0.03 25.15,2.3301 17.21,5.49 34.04,12.59 52,15.4099 36.87,6.25 76.34,-0.97 107.5,-22.03 30.05,-20.1 53.06,-49.24 70.23,-80.75 17.74,-32.9399 29.09,-68.75 40.76,-104.1399 6.09,-18.52 12.21,-37.0801 20.13,-54.92 4.23,-9.5 8.6899,-18.95 14.4399,-27.64 1.8201,-2.59 3.7001,-5.68 7.1,-6.28 0.8101,7.03 -1.0499,13.98 -2.4199,20.82 -4.79,21.6699 -10.6801,43.0699 -16.28,64.53 -11.59,43.37 -23.25,86.83 -39.26,128.8099 -6.88,18.26 -14.41,36.3 -23.4301,53.62 -8.87,19.03 -20.8899,36.35 -33.27,53.23 -3.93,5.87 -9.28,10.53 -13.58,16.1 C 996.74,1338.39 991.42,1344.79 985,1350 c -16.3,14.39 -35.01,26.3101 -55.59,33.51 -12.4,4.12 -25.35,6.47 -38.35,7.58 -9.02,1.16 -18.14,0.51 -27.18,1.36 -19.38,0.74 -40.17,-1.1699 -57.8,8.53 -17.55,8.72 -27.06,29.88 -23.54,48.92 2.45,15.38 10.82,28.8099 16.71,42.99 3.28,7.88 5.09,16.5699 3.68,25.1 -0.55,5.11 -1.18,11.28 2.79,15.28 5.29,4.91 12.69,6.37 19.53,7.76 34.57,6.1 69.77,2.4199 104.63,3.5599 9.38,0.73 19.56,1.36 27.44,7.0801 7.87,6.2 9.61,16.6799 12.42,25.71 5.07,18.96 16.98,34.92 28.17,50.67 3.91,6.1599 9.6201,11.84 10.33,19.46 -5.45,-0.78 -8.95,-5.51 -12.72,-9.02 -13.68,-14.63 -26,-30.63 -41.2,-43.78 -6.69,-5.8099 -13.65,-11.45 -21.71,-15.23 -19.51,-10.2 -42.01,-11.47 -63.57,-12.14 -25.84,-1.4399 -51.9,-2.39 -77.23,-8.15 -16.39,-3.7999 -32.77,-10.1 -45.1,-21.8999 -6.01,-5.6001 -11.11,-12.4601 -13.34,-20.4501 -3.67,-12.6799 -1.52,-26.25 -5.53,-38.86 -2.57,-7.97 -6.02,-15.83 -11.4301,-22.29 -3.24,-3.7999 -5.92,-8.08 -9.65,-11.4299 -8.7,-7.8101 -17.93,-15.1801 -28.34,-20.61 -6.06,-3.03 -12.48,-6.3 -19.45,-5.91 -7.14,0.09 -13.16,4.47 -18.84,8.3 -11.75,8.38 -23.89,16.5499 -37.53,21.5399 -11.95,4.6001 -24.81,6.8401 -37.62,6.27 -27.42,-1.22 -53.68,-10.2999 -80.86,-13.34 -20.4,-2.37 -41.41,-0.1901 -61.31,-6.21 -15.6,-4.9301 -29.12,-14.49 -42.38,-23.78 -15.98,-11.3301 -31.2,-24.5801 -50.07,-30.91 -19.61,-6.85 -41,-4.15 -60.79,-10.1899 -9.15,-2.7001 -16.6,-9.8501 -20.53,-18.4301 -5.36,-9.53 -7.71,-20.33 -9.87,-30.9399 -2.07,-13.24 -2.94,-26.66 -2.59,-40.0601 1.01,-19.92 2.64,-39.8 4.46,-59.67 2,-21.6399 2.91,-43.37 4.99,-65 1.43,-14.87 3.55,-29.7699 8.05,-44.0499 4.17,-13.9 11.15,-26.8201 19.68,-38.51 13.04,-17.72 28.99,-32.99 44.47,-48.53 19.31,-19.1 38.2,-38.83 53.86,-61.1 27.71,-39.27 43.85,-85.84 50.86,-133.15 4.29,-30.38 4.77,-61.34 0.9,-91.79 -2.79,-21.24 -7.47,-42.4 -15.86,-62.17 -7.32,-17.28 -18,-32.86 -29.22,-47.81 -32.68,-42.65 -64.8,-86.02 -90.73,-133.19 -2.15,-4.18 -4.06,-8.49 -6.6,-12.45 -10.27,-18.89 -18.54,-38.9 -24.2,-59.65 -7.78,-28.57 -10.25,-58.5 -7.86,-87.98 0.64,-10.53 1.4,-21.56 6.54,-31 4.61,-8.37 13.58,-13.04 22.41,-15.68 16.43,-4.88 33.64,-6.25 50.67,-7.25 43.9,-2.1 88.11,1.92 130.86,12.23 13.7,3.11 27.24,6.9 40.88,10.28 9.94,2.51 19.95,5.05 30.23,5.66 5.42,0.21 11.3701,-0.86 15.34,-4.87 5.5,-5.12 6.49,-13.47 4.8,-20.46 -1.08,-4.74 -5.61,-7.4 -9.7,-9.28 -9.2,-3.91 -19.14,-5.58 -28.96,-7.06 -22.68,-3.14 -45.58,-4.09 -68.42,-5.41 -11.37,-0.26 -22.71,-1.22 -34.09,-1.31 -17.28,-1.22 -34.64,-0.8 -51.92,-1.95 -29.03,-0.53 -58.03,-2.34 -87.05,-3.12 -32.41,-1.93 -64.88,-4.03 -97.01,-8.92 -26.77,-4.08 -53.54,-10.16 -78.17,-21.68 -21.19,-10.06 -41.03,-23.56 -56.59,-41.24 -8.25,-10.35 -17.92,-21.8 -16.93,-35.93 -0.31,-6.68 5.43,-12.16 11.8,-12.97 10.63,-1.59 21.3,0.84 31.79,2.42 22.82,4.12 45.93,7.02 69.15,7.09 26.71,0.36 53.38,-1.69 79.94,-4.24 68.42,-7.17 136.46,-17.91 205.08,-23.11 41.23,-3.36 82.63,-2.9 123.97,-2.84 22.61,-0.28 45.73,0.04 67.56,-6.72 13.88,-4.19 26.3,-11.86 38.49,-19.5 16.46,-10.38 33.79,-19.28 51.32,-27.68 20.57,-9.75 41.42,-18.9 62.49,-27.5 C 781.18,25.92 798.79,19.43 817.03,15.28 Z"
         id="path38" />
      <path
         inkscape:connector-curvature="0"
         d="m 983.46,606.6 c 25.39,-1.83 50.8599,1.95 75.35,8.52 16.3199,4.42 32.4199,9.93 47.5499,17.52 7.01,3.63 14.1801,7.59 19.3101,13.74 2.5199,2.95 4.0199,7.49 1.76,11.02 -3.4301,5.46 -9.8301,7.9 -15.76,9.54 -12.75,3.33 -26.02,4.64 -38.4,9.33 -15.67,5.55 -28.49,16.5 -41.2001,26.83 -13.1099,10.96 -26.58,22.04 -42.5599,28.56 -10.94,4.41 -23.06,6.95 -34.81,4.81 -14.74,-2.35 -27.81,-10.6299 -38.75,-20.46 -6.82,-5.84 -12.73,-12.63 -18.52,-19.45 -7,-8.57 -13.62,-17.55 -18.72,-27.4 -2.12,-4.44 -4.39,-9.75 -2.07,-14.5699 2.77,-5.92 8.39,-9.73 13.52,-13.46 C 917.74,622.17 949.99,609.45 983.46,606.6 Z"
         id="path40" />
      <path
         inkscape:connector-curvature="0"
         d="m 1439.12,733.09 c 0.3,-1.77 2.36,-4.6201 3.96,-2.25 2.8201,4.99 3.5,10.85 4.6901,16.39 3.7999,22.08 5.45,44.46 6.72,66.8 -0.16,10.0099 1.1901,19.96 0.8,29.97 0.36,9.35 -0.86,18.65 -0.75,28 -2.0701,45.35 -8.8201,90.66 -22.25,134.09 -13.17,42.8799 -30.9701,84.29 -52.3301,123.71 -18.1499,33.5599 -38.84,65.7799 -62.1899,95.97 -29.49,37.8099 -62.4401,72.95 -98.7001,104.34 -3.6799,3.08 -7.13,6.5 -11.2999,8.9301 4.5699,-6.11 10.08,-11.4401 14.98,-17.28 26.71,-30.28 51.48,-62.22 74.8,-95.17 23.0599,-32.73 45.0599,-66.25 64.9099,-101.0299 19.7101,-34.5801 37.39,-70.7401 47.41,-109.42 12,-45.67 12.99,-93.15 16.21,-139.96 2.01,-34.4 3.9701,-68.8 6.8501,-103.14 1.5098,-13.3802 2.1999,-27.0202 6.1899,-39.9502 z"
         id="path42" />
    </g>
  </g>
</svg>
